<?xml version="1.0" encoding="UTF-8" standalone="no"?>
<!-- Generator: Adobe Illustrator 19.0.0, SVG Export Plug-In . SVG Version: 6.00 Build 0)  -->

<svg
   xmlns:dc="http://purl.org/dc/elements/1.1/"
   xmlns:cc="http://creativecommons.org/ns#"
   xmlns:rdf="http://www.w3.org/1999/02/22-rdf-syntax-ns#"
   xmlns:svg="http://www.w3.org/2000/svg"
   xmlns="http://www.w3.org/2000/svg"
   xmlns:sodipodi="http://sodipodi.sourceforge.net/DTD/sodipodi-0.dtd"
   xmlns:inkscape="http://www.inkscape.org/namespaces/inkscape"
   version="1.1"
   id="Capa_1"
   x="0px"
   y="0px"
   viewBox="0 0 511.997 511.997"
   style="enable-background:new 0 0 511.997 511.997;"
   xml:space="preserve"
   sodipodi:docname="logo.svg"
   inkscape:version="0.92.2 2405546, 2018-03-11"><metadata
   id="metadata65"><rdf:RDF><cc:Work
       rdf:about=""><dc:format>image/svg+xml</dc:format><dc:type
         rdf:resource="http://purl.org/dc/dcmitype/StillImage" /><dc:title></dc:title></cc:Work></rdf:RDF></metadata><defs
   id="defs63">
	
	
	
	
	
	
	
	
	
	
</defs><sodipodi:namedview
   pagecolor="#ffffff"
   bordercolor="#666666"
   borderopacity="1"
   objecttolerance="10"
   gridtolerance="10"
   guidetolerance="10"
   inkscape:pageopacity="0"
   inkscape:pageshadow="2"
   inkscape:window-width="1920"
   inkscape:window-height="1055"
   id="namedview61"
   showgrid="false"
   inkscape:zoom="0.46094019"
   inkscape:cx="-857.16418"
   inkscape:cy="310.94043"
   inkscape:window-x="0"
   inkscape:window-y="0"
   inkscape:window-maximized="1"
   inkscape:current-layer="Capa_1" />

<g
   id="g30">
</g>
<g
   id="g32">
</g>
<g
   id="g34">
</g>
<g
   id="g36">
</g>
<g
   id="g38">
</g>
<g
   id="g40">
</g>
<g
   id="g42">
</g>
<g
   id="g44">
</g>
<g
   id="g46">
</g>
<g
   id="g48">
</g>
<g
   id="g50">
</g>
<g
   id="g52">
</g>
<g
   id="g54">
</g>
<g
   id="g56">
</g>
<g
   id="g58">
</g>
<g
   id="g4717"
   inkscape:export-filename="/home/jeff/Projects/MonsterCMS/assets/img/logo.png"
   inkscape:export-xdpi="90"
   inkscape:export-ydpi="90"><text
     id="text4578"
     y="697.82422"
     x="-984.02228"
     style="font-style:normal;font-weight:normal;font-size:40px;line-height:1.25;font-family:sans-serif;letter-spacing:0px;word-spacing:0px;fill:#93aca7;fill-opacity:1;stroke:none;"
     xml:space="preserve"><tspan
       style="font-style:normal;font-variant:normal;font-weight:bold;font-stretch:normal;font-size:160px;font-family:Ubuntu;-inkscape-font-specification:'Ubuntu Bold';fill:#93aca7;"
       y="697.82422"
       x="-984.02228"
       id="tspan4576"
       sodipodi:role="line">MONSTER</tspan></text>
<path
     style="fill:#d35f5f;stroke-width:0.231837"
     d="m -736.22733,637.77984 c -1.79164,-8.118 -5.712,-15.6126 -11.35839,-21.71409 -1.33306,1.35927 -2.46327,2.90307 -3.35631,4.58436 -1.54658,-0.69436 -2.94897,-1.67341 -4.13411,-2.88569 -1.20788,-1.20021 -2.17974,-2.61627 -2.86528,-4.17492 1.36622,-0.74883 2.6492,-1.6407 3.82717,-2.66056 -13.56849,-9.07897 -31.29383,-8.99782 -44.77886,0.20472 1.10425,0.94219 2.3047,1.7652 3.58142,2.45584 -1.39937,3.13166 -3.89625,5.64315 -7.0198,7.06061 -0.8309,-1.55564 -1.85538,-2.99975 -3.04935,-4.29781 l -0.0204,0.0204 c -5.49732,6.04886 -9.32078,13.42754 -11.09248,21.40713 -0.5163,2.49132 -0.78361,5.02808 -0.79821,7.57226 0,0.75718 0.0204,1.5146 0.0818,2.27177 0.99782,11.91388 7.77302,22.58139 18.13243,28.54934 2.35524,1.43252 4.85142,2.61907 7.44939,3.54062 9.86443,3.57469 20.67035,3.57469 30.53478,0 2.59798,-0.92155 5.09439,-2.1081 7.4494,-3.54062 10.3594,-5.96795 17.13484,-16.63569 18.13243,-28.54957 0.0615,-0.75718 0.0818,-1.51436 0.0818,-2.27177 -0.0116,-2.54418 -0.2789,-5.08094 -0.79752,-7.57203 z m -40.13307,13.77344 c -10.17255,0 -18.41899,-8.24645 -18.41899,-18.41899 0,-10.17254 8.24644,-18.41898 18.41899,-18.41898 10.17254,0 18.41898,8.24644 18.41898,18.41898 -7e-4,10.17209 -8.24667,18.41807 -18.41898,18.41899 z"
     id="path14"
     inkscape:connector-curvature="0" /><path
     sodipodi:nodetypes="ccccccccccc"
     style="fill:#a02c2c;stroke-width:0.40345246"
     d="m -731.01056,608.21748 c -1.50851,0.2905 0.28715,-0.29128 -1.14229,0.27113 -3.7509,1.46654 -7.14031,3.72628 -9.93663,6.62426 -2.31985,2.36546 -4.28669,5.05204 -5.84078,7.9779 -2.69143,-1.20835 -5.13193,-2.91214 -7.19436,-5.0218 -2.102,-2.08865 -3.79328,-4.55294 -4.98628,-7.26537 2.37755,-1.30314 4.61025,-2.85522 6.6602,-4.63002 3.48865,-3.04364 6.17886,-6.89539 7.83544,-11.21878 0.56241,-1.42944 -0.0675,0.31805 0.22298,-1.19046 2.92247,2.25382 4.38193,3.31464 7.23272,6.14082 2.79673,2.87864 5.08577,5.44485 7.149,8.31232 z"
     id="path4"
     inkscape:connector-curvature="0" /><path
     sodipodi:nodetypes="cccccccccccc"
     style="fill:#a02c2c;stroke-width:0.40796807"
     d="m -791.97135,610.12349 c -2.46251,5.51084 -6.85631,9.93036 -12.35286,12.42469 -1.46217,-2.73749 -3.26499,-5.27872 -5.36601,-7.56292 -2.91942,-3.17727 -6.52954,-5.64138 -10.55211,-7.20267 -1.44543,-0.56871 -0.66815,-1.0028 -2.19356,-1.29653 2.64793,-3.0815 3.92533,-4.60967 6.76968,-7.50135 2.85864,-2.84272 5.32542,-4.45089 8.7377,-7.21533 0.31129,1.49765 -0.28779,0.90166 0.26378,2.32833 1.782,4.52804 4.65166,8.54815 8.35518,11.70459 h 0.0359 c 1.94315,1.65759 4.05561,3.10586 6.3023,4.32119 z"
     id="path16"
     inkscape:connector-curvature="0" /><path
     style="fill:#ecf0f1;stroke-width:0.231837"
     d="m -776.3604,614.71507 c -10.17255,0 -18.41899,8.24645 -18.41899,18.41899 0,10.17255 8.24644,18.41899 18.41899,18.41899 10.17254,0 18.41898,-8.24644 18.41898,-18.41899 -7e-4,-10.17208 -8.24667,-18.41806 -18.41898,-18.41899 z m 0,26.64642 c -3.3373,0.0209 -6.35744,-1.97409 -7.64808,-5.05196 -1.29063,-3.07787 -0.59674,-6.63007 1.75733,-8.99597 2.35407,-2.3659 5.9028,-3.0774 8.98693,-1.8023 3.08413,1.27534 5.09415,4.2855 5.08998,7.6228 0.006,2.17672 -0.85363,4.26627 -2.38908,5.80914 -1.535,1.54311 -3.62037,2.41296 -5.79708,2.41829 z"
     id="path18"
     inkscape:connector-curvature="0" /><g
     transform="matrix(0.23183701,0,0,0.23183701,-835.71022,592.34698)"
     id="g26">
		<path
   style="fill:#2c2f38"
   d="m 291.309,175.931 c -0.145,19.467 -16.019,35.144 -35.486,35.047 -19.467,-0.097 -35.184,-15.931 -35.135,-35.399 0.048,-19.467 15.844,-35.223 35.311,-35.223 9.404,0.022 18.412,3.786 25.037,10.461 6.624,6.674 10.321,15.71 10.273,25.114 z"
   id="path20"
   inkscape:connector-curvature="0" />
		<path
   style="fill:#2c2f38"
   d="M 300.136,300.135 H 211.86 c -4.875,0 -8.828,-3.952 -8.828,-8.828 0,-4.876 3.952,-8.828 8.828,-8.828 h 88.276 c 4.875,0 8.828,3.952 8.828,8.828 0,4.876 -3.952,8.828 -8.828,8.828 z"
   id="path22"
   inkscape:connector-curvature="0" />
		<path
   style="fill:#2c2f38"
   d="m 264.826,335.445 h -17.655 c -4.875,0 -8.828,-3.952 -8.828,-8.828 0,-4.876 3.952,-8.828 8.828,-8.828 h 17.655 c 4.875,0 8.828,3.952 8.828,8.828 0,4.876 -3.953,8.828 -8.828,8.828 z"
   id="path24"
   inkscape:connector-curvature="0" />
	</g><text
     id="text4578-8"
     y="697.84155"
     x="-188.50708"
     style="font-style:normal;font-weight:normal;font-size:40px;line-height:1.25;font-family:sans-serif;letter-spacing:0px;word-spacing:0px;fill:#536c67;fill-opacity:1;stroke:none"
     xml:space="preserve"><tspan
       style="font-style:normal;font-variant:normal;font-weight:bold;font-stretch:normal;font-size:160px;font-family:Ubuntu;-inkscape-font-specification:'Ubuntu Bold';fill:#536c67"
       y="697.84155"
       x="-188.50708"
       id="tspan4576-8"
       sodipodi:role="line">CMS</tspan></text>
</g></svg>